<?xml version="1.0" encoding="UTF-8"?>
<svg id="Calque_2" data-name="Calque 2" xmlns="http://www.w3.org/2000/svg" viewBox="0 0 39.54 39.53">
  <defs>
    <style>
      .cls-1 {
        fill: #f0f;
      }
    </style>
  </defs>
  <g id="Maquette">
    <path class="cls-1" d="M21.1,39.53H1.98c-.1-.04-.2-.08-.3-.11-.79-.23-1.31-.74-1.56-1.53-.04-.11-.08-.23-.12-.34,0-11.87,0-23.73,0-35.6,.02-.03,.06-.07,.07-.1C.49,.49,1.16,0,2.56,0,14.05,0,25.54,0,37.03,0c1.61,0,2.5,.88,2.5,2.5,0,11.45-.01,22.9,.01,34.35,0,1.43-.67,2.41-1.9,2.63-.02,0-.04,.03-.07,.05h-10.22v-15.3h.53c1.33,0,2.66,0,4,0,.61,0,.61,0,.68-.62,.2-1.62,.41-3.24,.63-4.86,.07-.55,.07-.57-.48-.57-1.65,0-3.3,0-4.94,0-.29,0-.42-.07-.41-.39,.02-1.26,0-2.53,.02-3.79,.03-1.55,.78-2.34,2.32-2.4,1.08-.05,2.17-.04,3.25-.02,.39,0,.53-.1,.52-.51-.02-1.45,0-2.91,0-4.37,0-.57,0-.61-.58-.63-1.73-.05-3.46-.17-5.18-.09-2.96,.14-5.32,2.01-6.17,4.82-.27,.89-.39,1.85-.44,2.79-.07,1.31-.02,2.64-.02,3.95,0,.66,.1,.63-.61,.63-1.37,0-2.75,0-4.12,0-.33,0-.46,.1-.46,.44,.01,1.73,.01,3.46,0,5.19,0,.32,.1,.43,.43,.42,1.43-.02,2.86,0,4.28,0,.15,0,.29,.01,.48,.02,0,.22,0,.39,0,.57,0,4.71,0,9.42,0,14.13,0,.19,.01,.38,.02,.58Z"/>
  </g>
</svg>