<?xml version="1.0" encoding="UTF-8"?>
<svg id="Calque_2" data-name="Calque 2" xmlns="http://www.w3.org/2000/svg" viewBox="0 0 39.82 39.83">
  <defs>
    <style>
      .cls-1 {
        fill: #f0f;
      }
    </style>
  </defs>
  <g id="Maquette">
    <g>
      <path class="cls-1" d="M29.63,39.83H10.19c-.41-.06-.82-.11-1.22-.2-4.51-1.01-7.4-3.74-8.64-8.2-.16-.58-.22-1.19-.33-1.79,0-6.48,0-12.96,0-19.44,.02-.14,.04-.28,.08-.42,.27-1.04,.4-2.14,.84-3.09C2.9,2.4,6.3,.11,11.04,.04c5.91-.08,11.82-.02,17.73-.02,2.29,0,4.41,.62,6.28,1.95,3.17,2.26,4.75,5.36,4.76,9.25,.02,5.81,.01,11.61,0,17.42,0,.75-.04,1.51-.2,2.24-1,4.51-3.74,7.39-8.19,8.63-.58,.16-1.19,.22-1.79,.33ZM19.94,3.55c-2.89,0-5.78,0-8.67,0-.91,0-1.81,.09-2.67,.4-3.15,1.13-5.06,3.84-5.06,7.26,0,5.8-.02,11.61,.02,17.41,0,.87,.13,1.77,.4,2.59,1.07,3.17,3.82,5.07,7.24,5.08,5.81,.01,11.61,.02,17.42-.01,.87,0,1.77-.13,2.59-.4,3.16-1.06,5.07-3.79,5.08-7.19,.02-5.84,.01-11.69,0-17.53,0-2.61-1.06-4.71-3.18-6.25-1.35-.98-2.88-1.37-4.53-1.36-2.88,0-5.75,0-8.63,0Z"/>
      <path class="cls-1" d="M30.17,19.95c-.03,5.65-4.68,10.28-10.3,10.24-5.66-.04-10.28-4.69-10.23-10.3,.05-5.66,4.66-10.23,10.28-10.22,5.65,.02,10.28,4.66,10.25,10.28Zm-10.26-6.74c-3.7,0-6.72,3.01-6.73,6.72,0,3.7,3.01,6.72,6.72,6.72,3.7,0,6.72-3.01,6.73-6.72,0-3.7-3.01-6.72-6.72-6.72Z"/>
      <path class="cls-1" d="M30.62,11.85c-1.42,0-2.61-1.16-2.61-2.58,0-1.41,1.16-2.56,2.57-2.58,1.43-.01,2.61,1.16,2.61,2.58,0,1.4-1.17,2.57-2.57,2.58Z"/>
    </g>
  </g>
</svg>